<mxfile host="app.diagrams.net" modified="2023-07-12T09:02:40.051Z" agent="Mozilla/5.0 (Windows NT 10.0; Win64; x64) AppleWebKit/537.36 (KHTML, like Gecko) Chrome/114.0.0.0 Safari/537.36" version="21.2.9" etag="o_zO_Jh_va7VLozmt7Os" type="github">
  <diagram name="Page-1" id="OmMjOVtj1WEUcLDQ50cM">
    <mxGraphModel>
      <root>
        <mxCell id="0" />
        <mxCell id="1" parent="0" />
      </root>
    </mxGraphModel>
  </diagram>
</mxfile>
